<?xml version="1.0" encoding="UTF-8" standalone="no"?> <!-- Created with Vectornator for iOS (http://vectornator.io/) --><!DOCTYPE svg PUBLIC "-//W3C//DTD SVG 1.1//EN" "http://www.w3.org/Graphics/SVG/1.1/DTD/svg11.dtd">
<svg height="100%" style="fill-rule:nonzero;clip-rule:evenodd;stroke-linecap:round;stroke-linejoin:round;" xmlns:xlink="http://www.w3.org/1999/xlink" xmlns="http://www.w3.org/2000/svg" xml:space="preserve" width="100%" xmlns:vectornator="http://vectornator.io" version="1.1" viewBox="0 0 1024 768">
<metadata>
<vectornator:setting key="DimensionsVisible" value="1"/>
<vectornator:setting key="PencilOnly" value="0"/>
<vectornator:setting key="SnapToPoints" value="0"/>
<vectornator:setting key="OutlineMode" value="0"/>
<vectornator:setting key="CMYKEnabledKey" value="0"/>
<vectornator:setting key="RulersVisible" value="1"/>
<vectornator:setting key="SnapToEdges" value="0"/>
<vectornator:setting key="GuidesVisible" value="1"/>
<vectornator:setting key="DisplayWhiteBackground" value="0"/>
<vectornator:setting key="doHistoryDisabled" value="0"/>
<vectornator:setting key="SnapToGuides" value="1"/>
<vectornator:setting key="TimeLapseWatermarkDisabled" value="0"/>
<vectornator:setting key="Units" value="Pixels"/>
<vectornator:setting key="DynamicGuides" value="0"/>
<vectornator:setting key="IsolateActiveLayer" value="0"/>
<vectornator:setting key="SnapToGrid" value="0"/>
</metadata>
<defs/>
<g id="Layer 2" vectornator:layerName="Layer 2">
<g opacity="1">
<path d="M171.975+392.72C171.709+395.022+171.532+397.036+171.443+398.763C171.355+400.489+171.31+401.884+171.31+402.946C173.081+401.353+174.786+399.936+176.424+398.696C178.062+397.457+179.678+396.416+181.271+395.575C182.865+394.734+184.725+394.026+186.85+393.45C188.975+392.875+191.232+392.587+193.623+392.587C196.899+392.587+199.666+393.14+201.924+394.247C204.182+395.354+205.997+396.859+207.369+398.763C208.741+400.666+209.715+402.88+210.291+405.403C210.866+407.927+211.154+410.605+211.154+413.438L211.154+444.118C211.154+445.889+211.265+447.35+211.486+448.501C211.708+449.652+212.15+450.56+212.814+451.224C213.478+451.888+214.43+452.33+215.67+452.552C216.909+452.773+218.592+452.884+220.717+452.884L220.717+459.126C219.123+459.126+216.821+459.104+213.81+459.06C210.8+459.015+207.657+459.015+204.381+459.06C201.105+459.104+197.962+459.148+194.951+459.192C191.941+459.237+189.639+459.303+188.045+459.392L188.045+452.884C190.081+452.884+191.697+452.773+192.893+452.552C194.088+452.33+195.018+451.888+195.682+451.224C196.346+450.56+196.766+449.674+196.943+448.567C197.12+447.461+197.209+446.022+197.209+444.251L197.209+413.571C197.209+409.233+196.39+406.311+194.752+404.806C193.114+403.3+190.48+402.548+186.85+402.548C185.876+402.548+184.702+402.813+183.33+403.345C181.958+403.876+180.519+404.518+179.014+405.27C177.508+406.023+176.07+406.842+174.697+407.728C173.325+408.613+172.196+409.454+171.31+410.251L171.31+444.251C171.31+446.022+171.421+447.461+171.643+448.567C171.864+449.674+172.307+450.56+172.971+451.224C173.635+451.888+174.587+452.33+175.826+452.552C177.066+452.773+178.748+452.884+180.873+452.884L180.873+459.392C179.279+459.303+176.955+459.215+173.9+459.126C170.846+459.037+167.68+458.993+164.404+458.993C161.128+458.993+157.985+459.037+154.975+459.126C151.964+459.215+149.662+459.303+148.068+459.392L148.068+452.884C150.105+452.884+151.743+452.773+152.982+452.552C154.222+452.33+155.174+451.888+155.838+451.224C156.502+450.56+156.922+449.652+157.1+448.501C157.277+447.35+157.365+445.889+157.365+444.118L157.365+413.704C157.365+411.579+157.321+409.897+157.232+408.657C157.144+407.418+156.834+406.466+156.303+405.802C155.771+405.138+154.997+404.739+153.978+404.606C152.96+404.474+151.521+404.407+149.662+404.407L149.662+399.095C152.85+398.652+155.616+397.966+157.963+397.036C160.309+396.106+162.589+394.668+164.803+392.72L171.975+392.72Z" opacity="1" fill="#222222"/>
<path d="M257.827+444.517L257.827+428.446C250.036+430.306+244.391+432.386+240.894+434.688C237.396+436.991+235.648+439.868+235.648+443.321C235.648+447.04+236.334+449.431+237.706+450.493C239.079+451.556+241.181+452.087+244.015+452.087C246.405+452.087+248.862+451.268+251.386+449.63C253.909+447.992+256.056+446.287+257.827+444.517ZM281.999+446.642L283.46+452.884C281.424+454.832+279.122+456.713+276.554+458.528C273.986+460.343+271.064+461.251+267.788+461.251C266.283+461.251+264.933+460.985+263.737+460.454C262.542+459.923+261.524+459.303+260.683+458.595C259.842+457.886+259.222+457.001+258.823+455.938C258.425+454.876+258.181+454.035+258.093+453.415C257.296+454.3+256.3+455.208+255.105+456.138C253.909+457.067+252.537+457.886+250.987+458.595C249.438+459.303+247.534+459.923+245.277+460.454C243.019+460.985+240.606+461.251+238.038+461.251C235.648+461.251+233.434+460.853+231.398+460.056C229.361+459.259+227.612+458.196+226.152+456.868C224.691+455.54+223.562+453.968+222.765+452.153C221.968+450.338+221.614+448.412+221.702+446.376C221.791+442.834+222.831+439.824+224.823+437.345C226.816+434.866+229.472+432.696+232.792+430.837C236.112+428.978+239.92+427.34+244.214+425.923C248.508+424.506+253.046+423.09+257.827+421.673L257.827+413.438C257.827+409.897+257.097+407.13+255.636+405.138C254.175+403.145+251.452+402.149+247.468+402.149C244.635+402.149+242.244+402.991+240.296+404.673C238.348+406.355+237.286+408.569+237.109+411.313C237.109+413.527+236.445+415.32+235.116+416.692C233.788+418.065+231.973+418.751+229.671+418.751C227.369+418.751+225.775+418.131+224.89+416.892C224.004+415.652+223.562+414.235+223.562+412.642C223.562+410.074+224.713+407.639+227.015+405.337C229.317+403.035+233.213+400.423+238.702+397.501C241.713+395.996+244.214+394.823+246.206+393.981C248.198+393.14+250.523+392.72+253.179+392.72C255.747+392.72+258.159+393.074+260.417+393.782C262.675+394.491+264.667+395.531+266.394+396.903C268.12+398.276+269.471+399.958+270.445+401.95C271.418+403.942+271.905+406.178+271.905+408.657L271.905+443.985C271.905+446.199+271.972+447.881+272.105+449.032C272.237+450.183+272.636+450.847+273.3+451.024C273.964+451.201+274.982+450.914+276.355+450.161C277.727+449.409+279.609+448.235+281.999+446.642Z" opacity="1" fill="#222222"/>
<path d="M306.758+404.407C308.175+402.371+309.414+400.711+310.477+399.427C311.539+398.143+312.668+397.014+313.864+396.04C315.059+395.066+316.476+394.247+318.114+393.583C319.752+392.919+321.368+392.587+322.961+392.587C324.024+392.587+325.153+392.764+326.348+393.118C327.543+393.472+328.628+394.004+329.602+394.712C330.576+395.42+331.395+396.328+332.059+397.435C332.723+398.541+333.055+399.847+333.055+401.353C333.055+403.566+332.17+405.47+330.399+407.063C328.628+408.657+326.636+409.454+324.422+409.454C322.829+409.454+321.545+409.277+320.571+408.923C319.597+408.569+318.778+408.17+318.114+407.728C317.45+407.285+316.896+406.886+316.454+406.532C316.011+406.178+315.524+406.001+314.993+406.001C314.284+406.001+313.465+406.267+312.536+406.798C311.606+407.329+310.72+408.06+309.879+408.989C309.038+409.919+308.308+411.07+307.688+412.442C307.068+413.815+306.758+415.298+306.758+416.892L306.758+444.118C306.758+446.155+306.869+447.748+307.09+448.899C307.312+450.05+307.909+450.936+308.883+451.556C309.857+452.175+311.318+452.552+313.266+452.685C315.214+452.817+317.87+452.884+321.235+452.884L321.235+459.392C318.933+459.303+316.055+459.215+312.602+459.126C309.149+459.037+305.585+458.993+301.911+458.993C298.236+458.993+294.65+459.015+291.153+459.06C287.655+459.104+284.711+459.215+282.321+459.392L282.321+452.884C284.8+452.884+286.748+452.817+288.164+452.685C289.581+452.552+290.644+452.22+291.352+451.688C292.06+451.157+292.481+450.294+292.614+449.099C292.747+447.903+292.813+446.243+292.813+444.118L292.813+413.704C292.813+411.579+292.769+409.897+292.68+408.657C292.592+407.418+292.282+406.466+291.75+405.802C291.219+405.138+290.444+404.739+289.426+404.606C288.408+404.474+286.969+404.407+285.11+404.407L285.11+399.095C288.297+398.652+291.086+397.966+293.477+397.036C295.868+396.106+298.125+394.668+300.25+392.72L307.555+392.72C307.467+393.871+307.378+395+307.289+396.106C307.201+397.213+307.112+398.342+307.024+399.493C306.935+400.644+306.869+401.64+306.825+402.481C306.78+403.323+306.758+403.965+306.758+404.407Z" opacity="1" fill="#222222"/>
<path d="M382.517+420.61L345.463+420.61L345.463+423.134C345.463+423.931+345.463+424.816+345.463+425.79C345.463+426.764+345.507+427.871+345.595+429.11C345.772+432.298+346.326+435.22+347.256+437.876C348.185+440.532+349.403+442.834+350.908+444.782C352.413+446.73+354.206+448.257+356.287+449.364C358.368+450.471+360.692+451.024+363.259+451.024C366.801+451.024+370.011+450.117+372.888+448.302C375.766+446.487+378.621+443.897+381.455+440.532L387.431+444.251C384.598+449.209+380.924+453.282+376.408+456.47C371.892+459.657+366.668+461.251+360.736+461.251C356.575+461.251+352.723+460.41+349.181+458.728C345.64+457.045+342.585+454.743+340.017+451.821C337.45+448.899+335.435+445.491+333.974+441.595C332.513+437.699+331.783+433.537+331.783+429.11C331.783+423.444+332.513+418.353+333.974+413.837C335.435+409.321+337.494+405.492+340.15+402.349C342.806+399.205+345.927+396.793+349.513+395.11C353.099+393.428+357.017+392.587+361.267+392.587C364.189+392.587+367.133+393.074+370.099+394.048C373.065+395.022+375.7+396.461+378.002+398.364C380.304+400.268+382.207+402.681+383.713+405.603C385.218+408.524+385.97+411.933+385.97+415.829C385.97+417.6+385.86+418.84+385.638+419.548C385.417+420.256+384.377+420.61+382.517+420.61ZM346.525+413.438L369.634+413.438C370.697+413.438+371.295+413.35+371.427+413.173C371.56+412.996+371.627+412.42+371.627+411.446C371.627+410.118+371.383+408.768+370.896+407.395C370.409+406.023+369.679+404.761+368.705+403.61C367.731+402.459+366.558+401.53+365.185+400.821C363.813+400.113+362.285+399.759+360.603+399.759C356.619+399.759+353.453+401.043+351.107+403.61C348.761+406.178+347.233+409.454+346.525+413.438Z" opacity="1" fill="#222222"/>
<path d="M409.667+392.72C409.401+395.022+409.224+397.036+409.136+398.763C409.047+400.489+409.003+401.884+409.003+402.946C410.774+401.353+412.478+399.936+414.116+398.696C415.754+397.457+417.37+396.416+418.964+395.575C420.558+394.734+422.417+394.026+424.542+393.45C426.667+392.875+428.925+392.587+431.315+392.587C434.591+392.587+437.358+393.14+439.616+394.247C441.874+395.354+443.689+396.859+445.061+398.763C446.434+400.666+447.408+402.88+447.983+405.403C448.559+407.927+448.847+410.605+448.847+413.438L448.847+444.118C448.847+445.889+448.957+447.35+449.179+448.501C449.4+449.652+449.843+450.56+450.507+451.224C451.171+451.888+452.123+452.33+453.362+452.552C454.602+452.773+456.284+452.884+458.409+452.884L458.409+459.126C456.815+459.126+454.513+459.104+451.503+459.06C448.492+459.015+445.349+459.015+442.073+459.06C438.797+459.104+435.654+459.148+432.643+459.192C429.633+459.237+427.331+459.303+425.737+459.392L425.737+452.884C427.774+452.884+429.39+452.773+430.585+452.552C431.78+452.33+432.71+451.888+433.374+451.224C434.038+450.56+434.459+449.674+434.636+448.567C434.813+447.461+434.901+446.022+434.901+444.251L434.901+413.571C434.901+409.233+434.082+406.311+432.444+404.806C430.806+403.3+428.172+402.548+424.542+402.548C423.568+402.548+422.395+402.813+421.022+403.345C419.65+403.876+418.211+404.518+416.706+405.27C415.201+406.023+413.762+406.842+412.39+407.728C411.017+408.613+409.888+409.454+409.003+410.251L409.003+444.251C409.003+446.022+409.114+447.461+409.335+448.567C409.556+449.674+409.999+450.56+410.663+451.224C411.327+451.888+412.279+452.33+413.518+452.552C414.758+452.773+416.44+452.884+418.565+452.884L418.565+459.392C416.972+459.303+414.647+459.215+411.593+459.126C408.538+459.037+405.373+458.993+402.097+458.993C398.821+458.993+395.677+459.037+392.667+459.126C389.657+459.215+387.354+459.303+385.761+459.392L385.761+452.884C387.797+452.884+389.435+452.773+390.675+452.552C391.914+452.33+392.866+451.888+393.53+451.224C394.194+450.56+394.615+449.652+394.792+448.501C394.969+447.35+395.058+445.889+395.058+444.118L395.058+413.704C395.058+411.579+395.013+409.897+394.925+408.657C394.836+407.418+394.526+406.466+393.995+405.802C393.464+405.138+392.689+404.739+391.671+404.606C390.653+404.474+389.214+404.407+387.354+404.407L387.354+399.095C390.542+398.652+393.309+397.966+395.655+397.036C398.002+396.106+400.282+394.668+402.495+392.72L409.667+392.72Z" opacity="1" fill="#222222"/>
<path d="M510.528+410.517C510.528+407.949+509.952+405.802+508.801+404.075C507.65+402.349+506.278+400.998+504.684+400.024C503.001+399.05+501.186+398.342+499.238+397.899C497.291+397.457+495.475+397.235+493.793+397.235C490.96+397.235+488.149+397.833+485.36+399.028C482.57+400.224+480.113+402.017+477.988+404.407C475.775+406.798+474.004+409.786+472.676+413.372C471.348+416.958+470.684+421.142+470.684+425.923C470.684+433.715+472.698+440.134+476.727+445.181C480.755+450.228+486.4+452.751+493.66+452.751C494.811+452.751+496.361+452.507+498.309+452.02C500.257+451.534+502.116+450.847+503.887+449.962C505.658+449.076+507.207+448.058+508.535+446.907C509.863+445.756+510.528+444.517+510.528+443.188L510.528+410.517ZM510.528+370.142C510.528+367.84+510.417+366.002+510.195+364.63C509.974+363.257+509.509+362.173+508.801+361.376C508.181+360.668+507.274+360.225+506.078+360.048C504.883+359.871+503.356+359.782+501.496+359.782L501.496+357.126C504.33+356.595+507.097+355.776+509.797+354.669C512.498+353.562+514.866+352.079+516.903+350.22L519.293+350.22C519.028+352.61+518.85+355.156+518.762+357.856C518.673+360.557+518.629+362.97+518.629+365.095L518.629+445.712C518.629+448.722+519.404+450.515+520.953+451.091C522.503+451.666+524.871+451.866+528.059+451.688L528.059+454.345C526.376+454.876+523.964+455.761+520.82+457.001C517.677+458.241+514.778+459.436+512.121+460.587C511.59+460.853+511.192+460.875+510.926+460.653C510.66+460.432+510.528+460.056+510.528+459.524L510.528+449.563C506.897+453.017+503.156+455.606+499.305+457.333C495.453+459.06+491.668+459.923+487.949+459.923C484.054+459.923+480.49+459.06+477.258+457.333C474.026+455.606+471.259+453.282+468.957+450.36C466.655+447.527+464.884+444.229+463.645+440.466C462.405+436.703+461.785+432.829+461.785+428.845C461.785+424.063+462.671+419.504+464.442+415.165C466.212+410.826+468.647+407.019+471.746+403.743C474.757+400.467+478.298+397.855+482.371+395.907C486.444+393.959+490.783+392.985+495.387+392.985C497.512+392.985+499.748+393.229+502.094+393.716C504.44+394.203+507.251+395.199+510.528+396.704L510.528+370.142Z" opacity="1" fill="#222222"/>
<path d="M549.497+407.595C550.826+405.824+552.331+404.075+554.013+402.349C555.695+400.622+557.378+399.05+559.06+397.634C560.831+396.306+562.557+395.221+564.24+394.38C565.922+393.539+567.516+393.118+569.021+393.118C571.146+393.118+573.005+393.672+574.599+394.778C576.193+395.885+576.99+397.412+576.99+399.36C576.99+401.485+576.348+403.101+575.064+404.208C573.78+405.315+572.563+405.868+571.412+405.868C570.349+405.868+569.508+405.713+568.888+405.403C568.268+405.093+567.649+404.717+567.029+404.274C566.409+403.832+565.723+403.433+564.97+403.079C564.218+402.725+563.221+402.548+561.982+402.548C561.185+402.548+560.078+402.946+558.662+403.743C557.245+404.54+555.872+405.558+554.544+406.798C553.128+408.037+551.932+409.476+550.958+411.114C549.984+412.752+549.497+414.412+549.497+416.095L549.497+444.251C549.497+446.376+549.652+448.125+549.962+449.497C550.272+450.869+550.958+451.91+552.021+452.618C553.083+453.326+554.589+453.813+556.537+454.079C558.484+454.345+561.096+454.478+564.372+454.478L564.372+457.798C562.336+457.709+559.813+457.643+556.802+457.599C553.792+457.554+550.693+457.532+547.505+457.532C544.318+457.532+541.219+457.554+538.208+457.599C535.198+457.643+532.675+457.709+530.638+457.798L530.638+454.478C535.154+454.478+538.076+453.902+539.404+452.751C540.732+451.6+541.396+448.767+541.396+444.251L541.396+413.04C541.396+410.649+541.307+408.746+541.13+407.329C540.953+405.912+540.599+404.806+540.068+404.009C539.537+403.212+538.74+402.681+537.677+402.415C536.615+402.149+535.154+402.017+533.294+402.017L533.294+399.228C536.128+398.785+538.718+398.121+541.064+397.235C543.41+396.35+545.602+394.978+547.638+393.118L550.029+393.118C549.763+395.509+549.608+397.988+549.564+400.556C549.52+403.123+549.497+405.47+549.497+407.595Z" opacity="1" fill="#222222"/>
<path d="M617.952+425.392C608.212+428.313+600.93+431.036+596.104+433.56C591.279+436.083+588.866+439.293+588.866+443.188C588.866+447.261+589.906+450.028+591.987+451.489C594.068+452.95+596.967+453.681+600.686+453.681C603.962+453.681+607.105+452.795+610.116+451.024C613.126+449.254+615.738+447.173+617.952+444.782L617.952+425.392ZM638.007+452.751C636.059+454.61+634+456.293+631.831+457.798C629.661+459.303+627.47+460.056+625.257+460.056C623.132+460.056+621.427+459.082+620.143+457.134C618.859+455.186+618.129+452.353+617.952+448.634C614.676+452.087+611.046+454.854+607.061+456.935C603.077+459.015+598.915+460.056+594.577+460.056C590.592+460.056+587.228+458.75+584.483+456.138C581.738+453.526+580.454+450.228+580.632+446.243C580.72+442.967+581.716+440.156+583.62+437.81C585.523+435.463+588.158+433.405+591.522+431.634C594.798+429.863+598.694+428.225+603.21+426.72C607.725+425.215+612.639+423.621+617.952+421.938L617.952+412.774C617.952+408.879+617.044+405.669+615.229+403.145C613.414+400.622+609.895+399.36+604.671+399.36C600.952+399.36+597.654+400.445+594.776+402.614C591.898+404.784+590.415+407.418+590.327+410.517C590.327+412.642+589.906+414.191+589.065+415.165C588.224+416.139+587.184+416.626+585.944+416.626C584.882+416.626+584.063+416.183+583.487+415.298C582.911+414.412+582.624+413.261+582.624+411.845C582.624+409.454+583.753+407.152+586.01+404.938C588.268+402.725+591.921+400.29+596.967+397.634C599.889+396.04+602.302+394.889+604.206+394.181C606.109+393.472+608.124+393.118+610.249+393.118C614.499+393.118+618.195+394.402+621.339+396.97C624.482+399.537+626.053+403.256+626.053+408.126L626.053+444.384C626.053+449.342+627.138+452.175+629.307+452.884C631.477+453.592+634.243+452.795+637.608+450.493L638.007+452.751Z" opacity="1" fill="#222222"/>
<path d="M660.109+393.118C659.844+395.509+659.689+397.855+659.644+400.157C659.6+402.459+659.578+404.186+659.578+405.337C663.562+402.415+667.857+399.626+672.461+396.97C677.065+394.313+681.492+392.985+685.742+392.985C691.055+392.985+694.862+394.911+697.164+398.763C699.466+402.614+700.617+407.285+700.617+412.774L700.617+444.251C700.617+447.97+701.237+450.604+702.476+452.153C703.716+453.703+706.328+454.478+710.312+454.478L710.312+457.798C709.073+457.798+707.9+457.798+706.793+457.798C705.686+457.798+704.601+457.754+703.539+457.665C702.476+457.665+701.392+457.643+700.285+457.599C699.178+457.554+698.005+457.532+696.766+457.532C695.437+457.532+694.22+457.554+693.113+457.599C692.006+457.643+690.922+457.665+689.859+457.665C688.797+457.665+687.712+457.687+686.605+457.731C685.499+457.776+684.325+457.798+683.086+457.798L683.086+454.478C686.893+454.478+689.417+453.703+690.656+452.153C691.896+450.604+692.516+447.97+692.516+444.251L692.516+412.642C692.516+408.215+691.497+405.027+689.461+403.079C687.424+401.131+684.06+400.157+679.367+400.157C678.039+400.246+676.49+400.578+674.719+401.153C672.948+401.729+671.177+402.415+669.406+403.212C667.547+404.097+665.754+405.071+664.027+406.134C662.301+407.196+660.818+408.259+659.578+409.321L659.578+444.251C659.578+447.97+660.198+450.604+661.437+452.153C662.677+453.703+665.289+454.478+669.273+454.478L669.273+457.798C667.945+457.798+666.75+457.798+665.687+457.798C664.625+457.798+663.562+457.754+662.5+457.665C661.437+457.665+660.353+457.643+659.246+457.599C658.139+457.554+656.966+457.532+655.726+457.532C654.398+457.532+653.181+457.554+652.074+457.599C650.967+457.643+649.883+457.665+648.82+457.665C647.669+457.665+646.54+457.687+645.434+457.731C644.327+457.776+643.154+457.798+641.914+457.798L641.914+454.478C645.81+454.478+648.355+453.703+649.551+452.153C650.746+450.604+651.344+447.97+651.344+444.251L651.344+413.04C651.344+410.649+651.277+408.746+651.144+407.329C651.012+405.912+650.68+404.806+650.148+404.009C649.617+403.212+648.82+402.681+647.758+402.415C646.695+402.149+645.234+402.017+643.375+402.017L643.375+399.228C646.208+398.785+648.798+398.121+651.144+397.235C653.491+396.35+655.638+394.978+657.586+393.118L660.109+393.118Z" opacity="1" fill="#222222"/>
<path d="M752.736+425.392C742.996+428.313+735.713+431.036+730.888+433.56C726.062+436.083+723.65+439.293+723.65+443.188C723.65+447.261+724.69+450.028+726.771+451.489C728.851+452.95+731.751+453.681+735.47+453.681C738.746+453.681+741.889+452.795+744.9+451.024C747.91+449.254+750.522+447.173+752.736+444.782L752.736+425.392ZM772.79+452.751C770.842+454.61+768.784+456.293+766.614+457.798C764.445+459.303+762.254+460.056+760.04+460.056C757.915+460.056+756.211+459.082+754.927+457.134C753.643+455.186+752.913+452.353+752.736+448.634C749.459+452.087+745.829+454.854+741.845+456.935C737.861+459.015+733.699+460.056+729.361+460.056C725.376+460.056+722.012+458.75+719.267+456.138C716.522+453.526+715.238+450.228+715.415+446.243C715.504+442.967+716.5+440.156+718.403+437.81C720.307+435.463+722.941+433.405+726.306+431.634C729.582+429.863+733.478+428.225+737.993+426.72C742.509+425.215+747.423+423.621+752.736+421.938L752.736+412.774C752.736+408.879+751.828+405.669+750.013+403.145C748.198+400.622+744.678+399.36+739.454+399.36C735.736+399.36+732.437+400.445+729.56+402.614C726.682+404.784+725.199+407.418+725.111+410.517C725.111+412.642+724.69+414.191+723.849+415.165C723.008+416.139+721.967+416.626+720.728+416.626C719.665+416.626+718.846+416.183+718.271+415.298C717.695+414.412+717.407+413.261+717.407+411.845C717.407+409.454+718.536+407.152+720.794+404.938C723.052+402.725+726.704+400.29+731.751+397.634C734.673+396.04+737.086+394.889+738.989+394.181C740.893+393.472+742.907+393.118+745.032+393.118C749.282+393.118+752.979+394.402+756.122+396.97C759.265+399.537+760.837+403.256+760.837+408.126L760.837+444.384C760.837+449.342+761.922+452.175+764.091+452.884C766.26+453.592+769.027+452.795+772.392+450.493L772.79+452.751Z" opacity="1" fill="#222222"/>
<path d="M837.393+402.946L823.448+402.415C824.333+403.478+825.152+405.204+825.905+407.595C826.657+409.985+827.034+412.022+827.034+413.704C827.034+420.699+824.754+426.078+820.194+429.841C815.634+433.604+809.635+435.485+802.198+435.485C801.135+435.485+799.962+435.463+798.678+435.419C797.394+435.375+796.088+435.175+794.76+434.821C793.698+435.618+792.79+436.304+792.038+436.88C791.285+437.455+790.687+438.009+790.245+438.54C789.713+439.071+789.359+439.647+789.182+440.267C789.005+440.886+788.916+441.595+788.916+442.392C788.916+442.923+788.961+443.609+789.049+444.45C789.138+445.291+789.536+446.11+790.245+446.907C790.953+447.704+792.06+448.39+793.565+448.966C795.07+449.541+797.239+449.829+800.073+449.829C801.755+449.829+803.415+449.851+805.053+449.895C806.691+449.94+808.263+449.962+809.768+449.962C811.362+449.962+812.867+449.962+814.284+449.962C815.7+449.962+817.161+449.962+818.666+449.962C824.245+449.962+828.804+451.201+832.346+453.681C835.888+456.16+837.659+460.1+837.659+465.501C837.659+468.777+836.729+471.898+834.87+474.864C833.01+477.83+830.442+480.465+827.166+482.767C823.979+485.069+820.172+486.906+815.745+488.278C811.317+489.651+806.58+490.337+801.534+490.337C797.284+490.337+793.565+489.806+790.377+488.743C787.19+487.681+784.534+486.353+782.409+484.759C780.284+483.165+778.712+481.394+777.694+479.446C776.676+477.498+776.166+475.506+776.166+473.47C776.166+468.866+777.782+465.147+781.014+462.313C784.246+459.48+787.81+457.488+791.705+456.337C786.924+455.274+783.759+453.194+782.209+450.095C780.66+446.996+780.372+443.764+781.346+440.399C783.205+439.337+785.109+438.119+787.057+436.747C789.005+435.375+790.377+434.29+791.174+433.493C787.898+431.811+785.087+429.487+782.741+426.52C780.394+423.554+779.221+419.636+779.221+414.767C779.221+408.569+781.368+403.389+785.663+399.228C789.957+395.066+796.221+392.985+804.455+392.985C806.315+392.985+808.351+393.185+810.565+393.583C812.778+393.981+814.771+394.402+816.541+394.845C818.401+395.553+820.437+396.151+822.651+396.638C824.864+397.125+827.565+397.368+830.752+397.368C831.372+397.368+831.903+397.39+832.346+397.435C832.789+397.479+833.232+397.457+833.674+397.368C834.117+397.368+834.604+397.346+835.135+397.302C835.666+397.257+836.419+397.147+837.393+396.97L837.393+402.946ZM783.338+471.478C783.338+476.259+785.375+479.867+789.448+482.302C793.521+484.737+798.258+485.954+803.659+485.954C807.289+485.954+810.72+485.556+813.952+484.759C817.183+483.962+820.039+482.855+822.518+481.438C824.909+480.022+826.812+478.34+828.229+476.392C829.646+474.444+830.354+472.23+830.354+469.751C830.354+467.537+829.756+465.656+828.561+464.106C827.366+462.557+825.794+461.34+823.846+460.454C821.81+459.48+819.485+458.794+816.873+458.395C814.261+457.997+811.495+457.798+808.573+457.798C800.338+457.798+794.074+459.06+789.78+461.583C785.485+464.106+783.338+467.405+783.338+471.478ZM788.385+413.306C788.385+418.353+789.625+422.735+792.104+426.454C794.583+430.173+798.302+432.032+803.26+432.032C808.927+432.032+812.933+430.35+815.28+426.985C817.626+423.621+818.799+419.681+818.799+415.165C818.799+413.04+818.489+410.849+817.87+408.591C817.25+406.333+816.32+404.319+815.08+402.548C813.841+400.777+812.203+399.316+810.166+398.165C808.13+397.014+805.695+396.438+802.862+396.438C800.294+396.438+798.08+396.97+796.221+398.032C794.362+399.095+792.857+400.423+791.705+402.017C790.554+403.699+789.713+405.536+789.182+407.528C788.651+409.52+788.385+411.446+788.385+413.306Z" opacity="1" fill="#222222"/>
</g>
</g>
</svg>
